<mxfile host="app.diagrams.net" modified="2022-12-19T22:29:57.309Z" agent="5.0 (Windows NT 10.0; Win64; x64) AppleWebKit/537.36 (KHTML, like Gecko) Chrome/108.0.0.0 Safari/537.36" version="20.7.4" etag="bEL8WAwULfnvNvVIzz2a" type="github">
  <diagram id="CM5RiHYINIO5A2Li0w-O" name="Страница 1">
    <mxGraphModel dx="838" dy="925" grid="1" gridSize="10" guides="1" tooltips="1" connect="1" arrows="1" fold="1" page="1" pageScale="1" pageWidth="827" pageHeight="1169" math="0" shadow="0">
      <root>
        <mxCell id="0" />
        <mxCell id="1" parent="0" />
        <mxCell id="NRyoTodfwleicMaJ-RvA-43" value="Оформить заказ на покупку" style="ellipse;whiteSpace=wrap;html=1;" vertex="1" parent="1">
          <mxGeometry x="280" y="350" width="120" height="80" as="geometry" />
        </mxCell>
        <mxCell id="NRyoTodfwleicMaJ-RvA-44" value="Помочь клиенту с выбором товара" style="ellipse;whiteSpace=wrap;html=1;" vertex="1" parent="1">
          <mxGeometry x="300" y="170" width="120" height="80" as="geometry" />
        </mxCell>
        <mxCell id="NRyoTodfwleicMaJ-RvA-45" value="Собрать заказ" style="ellipse;whiteSpace=wrap;html=1;" vertex="1" parent="1">
          <mxGeometry x="650" y="520" width="120" height="80" as="geometry" />
        </mxCell>
        <mxCell id="NRyoTodfwleicMaJ-RvA-46" value="Запросить меню кафе" style="ellipse;whiteSpace=wrap;html=1;" vertex="1" parent="1">
          <mxGeometry x="140" y="520" width="120" height="80" as="geometry" />
        </mxCell>
        <mxCell id="NRyoTodfwleicMaJ-RvA-47" value="Посетитель" style="shape=umlActor;verticalLabelPosition=bottom;verticalAlign=top;html=1;outlineConnect=0;" vertex="1" parent="1">
          <mxGeometry x="100" y="370" width="30" height="60" as="geometry" />
        </mxCell>
        <mxCell id="NRyoTodfwleicMaJ-RvA-48" value="Кассир" style="shape=umlActor;verticalLabelPosition=bottom;verticalAlign=top;html=1;outlineConnect=0;" vertex="1" parent="1">
          <mxGeometry x="515" y="200" width="30" height="60" as="geometry" />
        </mxCell>
        <mxCell id="NRyoTodfwleicMaJ-RvA-49" value="Сборщик заказа" style="shape=umlActor;verticalLabelPosition=bottom;verticalAlign=top;html=1;outlineConnect=0;" vertex="1" parent="1">
          <mxGeometry x="850" y="540" width="30" height="60" as="geometry" />
        </mxCell>
        <mxCell id="NRyoTodfwleicMaJ-RvA-57" value="Extend" style="html=1;verticalAlign=bottom;endArrow=open;dashed=1;endSize=8;rounded=0;exitX=1;exitY=0;exitDx=0;exitDy=0;" edge="1" parent="1" target="NRyoTodfwleicMaJ-RvA-43" source="NRyoTodfwleicMaJ-RvA-46">
          <mxGeometry relative="1" as="geometry">
            <mxPoint x="240" y="536.1399999999999" as="sourcePoint" />
            <mxPoint x="337.57359312880703" y="547.8557287525381" as="targetPoint" />
          </mxGeometry>
        </mxCell>
        <mxCell id="NRyoTodfwleicMaJ-RvA-58" value="" style="endArrow=classic;html=1;rounded=0;entryX=0;entryY=0.5;entryDx=0;entryDy=0;exitX=1;exitY=0.3333333333333333;exitDx=0;exitDy=0;exitPerimeter=0;" edge="1" parent="1" source="NRyoTodfwleicMaJ-RvA-47" target="NRyoTodfwleicMaJ-RvA-43">
          <mxGeometry width="50" height="50" relative="1" as="geometry">
            <mxPoint x="300" y="440" as="sourcePoint" />
            <mxPoint x="350" y="390" as="targetPoint" />
          </mxGeometry>
        </mxCell>
        <mxCell id="NRyoTodfwleicMaJ-RvA-59" value="" style="endArrow=classic;html=1;rounded=0;entryX=1;entryY=0.5;entryDx=0;entryDy=0;exitX=0;exitY=0.3333333333333333;exitDx=0;exitDy=0;exitPerimeter=0;" edge="1" parent="1" source="NRyoTodfwleicMaJ-RvA-49" target="NRyoTodfwleicMaJ-RvA-45">
          <mxGeometry width="50" height="50" relative="1" as="geometry">
            <mxPoint x="523" y="450" as="sourcePoint" />
            <mxPoint x="573" y="400" as="targetPoint" />
          </mxGeometry>
        </mxCell>
        <mxCell id="NRyoTodfwleicMaJ-RvA-61" value="" style="endArrow=classic;html=1;rounded=0;entryX=1;entryY=0;entryDx=0;entryDy=0;exitX=0;exitY=0.3333333333333333;exitDx=0;exitDy=0;exitPerimeter=0;" edge="1" parent="1" source="NRyoTodfwleicMaJ-RvA-48" target="NRyoTodfwleicMaJ-RvA-43">
          <mxGeometry width="50" height="50" relative="1" as="geometry">
            <mxPoint x="330" y="440" as="sourcePoint" />
            <mxPoint x="380" y="390" as="targetPoint" />
          </mxGeometry>
        </mxCell>
        <mxCell id="NRyoTodfwleicMaJ-RvA-62" value="Занесение данных о покупке в базу данных" style="ellipse;whiteSpace=wrap;html=1;" vertex="1" parent="1">
          <mxGeometry x="140" y="190" width="120" height="80" as="geometry" />
        </mxCell>
        <mxCell id="NRyoTodfwleicMaJ-RvA-63" value="Использовать систему лояльности" style="ellipse;whiteSpace=wrap;html=1;" vertex="1" parent="1">
          <mxGeometry x="330" y="540" width="120" height="80" as="geometry" />
        </mxCell>
        <mxCell id="NRyoTodfwleicMaJ-RvA-64" value="Extend" style="html=1;verticalAlign=bottom;endArrow=open;dashed=1;endSize=8;rounded=0;exitX=0.585;exitY=-0.048;exitDx=0;exitDy=0;exitPerimeter=0;entryX=1;entryY=1;entryDx=0;entryDy=0;" edge="1" parent="1" source="NRyoTodfwleicMaJ-RvA-63" target="NRyoTodfwleicMaJ-RvA-43">
          <mxGeometry relative="1" as="geometry">
            <mxPoint x="147.42640687119274" y="501.7157287525381" as="sourcePoint" />
            <mxPoint x="302" y="424.0000000000002" as="targetPoint" />
          </mxGeometry>
        </mxCell>
        <mxCell id="NRyoTodfwleicMaJ-RvA-66" value="Выдача заказа" style="ellipse;whiteSpace=wrap;html=1;" vertex="1" parent="1">
          <mxGeometry x="650" y="350" width="120" height="80" as="geometry" />
        </mxCell>
        <mxCell id="NRyoTodfwleicMaJ-RvA-67" value="" style="endArrow=classic;html=1;rounded=0;entryX=0.5;entryY=0;entryDx=0;entryDy=0;exitX=1;exitY=0.3333333333333333;exitDx=0;exitDy=0;exitPerimeter=0;" edge="1" parent="1" source="NRyoTodfwleicMaJ-RvA-48" target="NRyoTodfwleicMaJ-RvA-66">
          <mxGeometry width="50" height="50" relative="1" as="geometry">
            <mxPoint x="530" y="280" as="sourcePoint" />
            <mxPoint x="392.42640687119297" y="371.7157287525381" as="targetPoint" />
          </mxGeometry>
        </mxCell>
        <mxCell id="NRyoTodfwleicMaJ-RvA-68" value="" style="endArrow=classic;html=1;rounded=0;exitX=1;exitY=0.5;exitDx=0;exitDy=0;entryX=0;entryY=0.5;entryDx=0;entryDy=0;" edge="1" parent="1" source="NRyoTodfwleicMaJ-RvA-43" target="NRyoTodfwleicMaJ-RvA-72">
          <mxGeometry width="50" height="50" relative="1" as="geometry">
            <mxPoint x="535" y="240" as="sourcePoint" />
            <mxPoint x="430" y="430" as="targetPoint" />
          </mxGeometry>
        </mxCell>
        <mxCell id="NRyoTodfwleicMaJ-RvA-69" value="Include" style="html=1;verticalAlign=bottom;endArrow=open;dashed=1;endSize=8;rounded=0;exitX=0.5;exitY=0;exitDx=0;exitDy=0;entryX=0.5;entryY=1;entryDx=0;entryDy=0;" edge="1" parent="1" source="NRyoTodfwleicMaJ-RvA-43" target="NRyoTodfwleicMaJ-RvA-44">
          <mxGeometry relative="1" as="geometry">
            <mxPoint x="240.19999999999982" y="566.1600000000001" as="sourcePoint" />
            <mxPoint x="320.24" y="434.4000000000001" as="targetPoint" />
          </mxGeometry>
        </mxCell>
        <mxCell id="NRyoTodfwleicMaJ-RvA-70" value="Include" style="html=1;verticalAlign=bottom;endArrow=open;dashed=1;endSize=8;rounded=0;exitX=0.232;exitY=0.107;exitDx=0;exitDy=0;entryX=0.5;entryY=1;entryDx=0;entryDy=0;exitPerimeter=0;" edge="1" parent="1" source="NRyoTodfwleicMaJ-RvA-43" target="NRyoTodfwleicMaJ-RvA-62">
          <mxGeometry relative="1" as="geometry">
            <mxPoint x="350" y="360" as="sourcePoint" />
            <mxPoint x="370" y="260" as="targetPoint" />
          </mxGeometry>
        </mxCell>
        <mxCell id="NRyoTodfwleicMaJ-RvA-71" value="Include" style="html=1;verticalAlign=bottom;endArrow=open;dashed=1;endSize=8;rounded=0;exitX=0.5;exitY=1;exitDx=0;exitDy=0;entryX=0.5;entryY=0;entryDx=0;entryDy=0;" edge="1" parent="1" source="NRyoTodfwleicMaJ-RvA-66" target="NRyoTodfwleicMaJ-RvA-45">
          <mxGeometry relative="1" as="geometry">
            <mxPoint x="360" y="370" as="sourcePoint" />
            <mxPoint x="380" y="270" as="targetPoint" />
          </mxGeometry>
        </mxCell>
        <mxCell id="NRyoTodfwleicMaJ-RvA-72" value="Приготовление заказа" style="ellipse;whiteSpace=wrap;html=1;" vertex="1" parent="1">
          <mxGeometry x="470" y="350" width="120" height="80" as="geometry" />
        </mxCell>
        <mxCell id="NRyoTodfwleicMaJ-RvA-73" value="" style="endArrow=classic;html=1;rounded=0;exitX=1;exitY=0.5;exitDx=0;exitDy=0;entryX=0;entryY=0.5;entryDx=0;entryDy=0;" edge="1" parent="1" source="NRyoTodfwleicMaJ-RvA-72" target="NRyoTodfwleicMaJ-RvA-66">
          <mxGeometry width="50" height="50" relative="1" as="geometry">
            <mxPoint x="410" y="400" as="sourcePoint" />
            <mxPoint x="479.99999999999795" y="400" as="targetPoint" />
          </mxGeometry>
        </mxCell>
        <mxCell id="NRyoTodfwleicMaJ-RvA-74" value="Повар" style="shape=umlActor;verticalLabelPosition=bottom;verticalAlign=top;html=1;outlineConnect=0;" vertex="1" parent="1">
          <mxGeometry x="515" y="510" width="30" height="60" as="geometry" />
        </mxCell>
        <mxCell id="NRyoTodfwleicMaJ-RvA-75" value="" style="endArrow=classic;html=1;rounded=0;exitX=0.5;exitY=0;exitDx=0;exitDy=0;entryX=0.5;entryY=1;entryDx=0;entryDy=0;exitPerimeter=0;" edge="1" parent="1" source="NRyoTodfwleicMaJ-RvA-74" target="NRyoTodfwleicMaJ-RvA-72">
          <mxGeometry width="50" height="50" relative="1" as="geometry">
            <mxPoint x="600.000000000002" y="400" as="sourcePoint" />
            <mxPoint x="660" y="400" as="targetPoint" />
          </mxGeometry>
        </mxCell>
      </root>
    </mxGraphModel>
  </diagram>
</mxfile>
